<svg version="1.0" id="" xmlns="http://www.w3.org/2000/svg"
	xmlns:xlink="http://www.w3.org/1999/xlink" x="0px" y="0px"
	style="enable-background:new 0 0 600 450;" xml:space="preserve" viewBox="98.43 108.83 403.33 233.14">
	<style type="text/css">
		.st0{fill-rule:evenodd;clip-rule:evenodd;fill:#FFFDFC;stroke:#1976d2;stroke-width:3.3766;}
		.st1{fill-rule:evenodd;clip-rule:evenodd;fill:#1976d2;}
		.st2{fill:#FFFFFF;}
		.st3{fill:#1976d2;}
	</style>
	<g id="bbb">
		<g>
			<path id="Rectangle" class="st0" d="M481.4,117.3H118.8c-3.3,0-6.2,1.3-8.4,3.5c-2.1,2.1-3.5,5.1-3.5,8.4v192.4    c0,3.3,1.3,6.2,3.5,8.4c2.1,2.1,5.1,3.5,8.4,3.5h362.6c3.3,0,6.2-1.3,8.4-3.5c2.1-2.1,3.5-5.1,3.5-8.4V129.2    c0-3.3-1.3-6.2-3.5-8.4C487.7,118.6,484.7,117.3,481.4,117.3z"></path>
			<path id="Shape" class="st1" d="M289.3,115.6h192.1c7.5,0,13.5,6.1,13.5,13.5v192.4c0,7.5-6.1,13.5-13.5,13.5H289.3V115.6z     M105.3,321.6V129.2V321.6z"></path>
			<path id="A_x2B_Rating" class="st2" d="M370.4,227.1l-5-12.7h-24.9l-4.7,12.7H319l26.9-64.5H361l26.7,64.5H370.4z M353.2,179.7    l-8.2,22.2h16.1L353.2,179.7z M422.6,205.2v19.1h-11.8v-19.1h-19.3v-11.5h19.2v-19.1h11.8v19.1h19.3v11.5H422.6z M328.6,284.5H325    v-35.9h10.5c1.7,0,3.4,0.2,4.9,0.5c1.5,0.3,2.8,0.9,3.9,1.6c1.1,0.8,1.9,1.7,2.5,3c0.6,1.2,0.9,2.7,0.9,4.5c0,1.3-0.2,2.5-0.7,3.6    c-0.5,1.1-1.1,2-1.9,2.8c-0.8,0.8-1.8,1.4-2.9,1.9c-1.1,0.5-2.3,0.8-3.6,0.9l10.4,17.1h-4.4l-9.9-16.8h-6V284.5z M328.6,264.6h6.3    c2.9,0,5.2-0.5,6.8-1.6c1.6-1.1,2.4-2.7,2.4-4.8c0-1.2-0.2-2.2-0.7-3c-0.4-0.8-1-1.5-1.8-2c-0.8-0.5-1.7-0.9-2.8-1.1    c-1.1-0.2-2.3-0.4-3.7-0.4h-6.5V264.6z M369.3,269.2c0-2.1-0.5-3.6-1.6-4.6c-1.1-1-2.6-1.5-4.7-1.5c-1.4,0-2.7,0.3-3.9,0.8    c-1.2,0.5-2.2,1.2-3.1,2l-1.9-2.3c1-1,2.3-1.8,3.9-2.4c1.6-0.6,3.4-1,5.4-1c1.3,0,2.5,0.2,3.6,0.5s2.1,0.9,2.9,1.6    c0.8,0.7,1.5,1.6,2,2.7c0.5,1.1,0.7,2.3,0.7,3.8v10.4c0,0.9,0,1.9,0.1,2.8c0.1,1,0.2,1.8,0.3,2.5h-3.1c-0.1-0.6-0.2-1.2-0.3-1.9    s-0.1-1.3-0.1-2h-0.1c-1.1,1.6-2.3,2.7-3.7,3.4c-1.4,0.7-3,1-4.9,1c-0.9,0-1.8-0.1-2.8-0.4c-1-0.3-1.8-0.7-2.6-1.2    c-0.8-0.6-1.4-1.3-2-2.2c-0.5-0.9-0.8-2-0.8-3.3c0-1.8,0.5-3.3,1.4-4.3c0.9-1.1,2.2-1.9,3.7-2.4c1.5-0.5,3.3-0.9,5.3-1    c2-0.2,4.1-0.2,6.2-0.2V269.2z M368.3,272.6c-1.4,0-2.8,0.1-4.3,0.2c-1.4,0.1-2.7,0.4-3.9,0.7c-1.2,0.4-2.1,0.9-2.8,1.5    s-1.1,1.6-1.1,2.7c0,0.8,0.2,1.6,0.5,2.1s0.7,1,1.3,1.4s1.1,0.6,1.8,0.8c0.7,0.2,1.3,0.2,2,0.2c1.2,0,2.3-0.2,3.2-0.6    c0.9-0.4,1.7-1,2.4-1.7c0.6-0.7,1.1-1.6,1.5-2.5s0.5-1.9,0.5-3v-1.8H368.3z M391.4,263.6h-6.7v13.8c0,0.9,0.1,1.6,0.3,2.2    c0.2,0.6,0.4,1,0.7,1.3c0.3,0.3,0.7,0.5,1.1,0.7c0.4,0.1,0.9,0.2,1.4,0.2c0.5,0,1-0.1,1.5-0.2c0.5-0.1,1-0.3,1.5-0.6l0.2,3    c-0.6,0.2-1.2,0.4-1.9,0.5c-0.7,0.1-1.4,0.2-2.1,0.2c-0.6,0-1.3-0.1-2-0.3s-1.4-0.5-2-1c-0.6-0.5-1.1-1.1-1.5-1.9    s-0.6-1.9-0.6-3.2v-14.8h-4.9v-2.9h4.9v-6.7h3.4v6.7h6.7V263.6z M400.3,284.5h-3.4v-23.7h3.4V284.5z M401,251.6    c0,0.7-0.3,1.3-0.8,1.7c-0.5,0.5-1.1,0.7-1.7,0.7s-1.2-0.2-1.7-0.7c-0.5-0.5-0.8-1-0.8-1.7c0-0.7,0.3-1.3,0.8-1.7    c0.5-0.5,1.1-0.7,1.7-0.7s1.2,0.2,1.7,0.7C400.7,250.3,401,250.9,401,251.6z M412.4,260.8c0.1,0.6,0.1,1.4,0.2,2.1    c0,0.8,0.1,1.4,0.1,1.9h0.1c0.7-1.4,1.8-2.5,3.3-3.4c1.5-0.9,3.1-1.3,4.8-1.3c3,0,5.2,0.9,6.7,2.7c1.5,1.8,2.2,4.2,2.2,7.1v14.5    h-3.4v-13.1c0-1.2-0.1-2.4-0.3-3.4c-0.2-1-0.5-1.9-1-2.6c-0.5-0.7-1.1-1.3-2-1.7c-0.8-0.4-1.9-0.6-3.1-0.6c-0.9,0-1.8,0.2-2.6,0.6    c-0.9,0.4-1.6,0.9-2.3,1.7c-0.7,0.8-1.2,1.7-1.6,2.9c-0.4,1.2-0.6,2.5-0.6,4.1v12.2h-3.4V266c0-0.6,0-1.5-0.1-2.5    c0-1-0.1-1.9-0.2-2.7H412.4z M439.9,289.2c0.9,1.2,2.2,2.2,3.9,3.1c1.6,0.8,3.4,1.3,5.2,1.3c1.7,0,3.1-0.2,4.3-0.7    c1.2-0.5,2.1-1.2,2.8-2c0.7-0.8,1.3-1.8,1.6-3c0.3-1.1,0.5-2.3,0.5-3.6v-4.5H458c-0.9,1.5-2.2,2.6-3.9,3.4    c-1.7,0.8-3.4,1.2-5.1,1.2c-1.8,0-3.5-0.3-5-0.9s-2.8-1.4-3.8-2.5c-1.1-1.1-1.9-2.3-2.5-3.8s-0.9-3.1-0.9-4.8    c0-1.7,0.3-3.3,0.9-4.8s1.4-2.8,2.5-3.9c1.1-1.1,2.3-2,3.8-2.6c1.5-0.6,3.2-1,5-1c1.7,0,3.4,0.4,5,1.2c1.6,0.8,2.9,2,3.9,3.5h0.1    v-4.1h3.4v23.5c0,1.3-0.2,2.7-0.5,4.1c-0.4,1.5-1,2.8-2,4c-1,1.2-2.3,2.2-3.9,3c-1.6,0.8-3.8,1.2-6.4,1.2c-2.2,0-4.3-0.4-6.2-1.3    c-2-0.8-3.7-2-5.1-3.5L439.9,289.2z M440.6,272.3c0,1.2,0.2,2.4,0.6,3.5c0.4,1.1,1,2.1,1.7,2.9c0.8,0.8,1.7,1.5,2.8,2    c1.1,0.5,2.4,0.7,3.8,0.7c1.3,0,2.5-0.2,3.6-0.7c1.1-0.4,2.1-1.1,2.9-1.9c0.8-0.8,1.4-1.8,1.9-2.9c0.5-1.1,0.7-2.4,0.7-3.8    c0-1.2-0.2-2.4-0.7-3.5s-1.1-2.1-1.9-2.9c-0.8-0.8-1.8-1.5-2.9-2c-1.1-0.5-2.3-0.8-3.6-0.8c-1.4,0-2.7,0.3-3.8,0.8s-2,1.2-2.8,2    c-0.8,0.8-1.3,1.8-1.7,2.9C440.8,269.9,440.6,271.1,440.6,272.3z"></path>
			<path id="BBB-Logo" class="st3" d="M253.4,305.4c0.8,0,1.6,0.3,2.1,0.9c0.6,0.6,0.9,1.3,0.9,2.1c0,0.8-0.3,1.6-0.9,2.2    c-0.6,0.6-1.3,0.9-2.1,0.9s-1.6-0.3-2.1-0.9c-0.6-0.6-0.9-1.3-0.9-2.2c0-0.8,0.3-1.5,0.9-2.1C251.9,305.7,252.6,305.4,253.4,305.4    z M253.4,305.8c-0.7,0-1.3,0.3-1.8,0.8c-0.5,0.5-0.8,1.1-0.8,1.8c0,0.7,0.3,1.3,0.8,1.9c0.5,0.5,1.1,0.8,1.8,0.8s1.3-0.3,1.8-0.8    c0.5-0.5,0.8-1.1,0.8-1.9c0-0.7-0.3-1.3-0.8-1.8C254.8,306.1,254.1,305.8,253.4,305.8z M160.4,271.6c4.5,0,8.2,1.1,10.4,3.4    c1.9,1.9,2.6,4.1,2.6,6.7c0,4.5-2.2,7.1-5.2,8.6c4.5,1.9,7.4,4.5,7.4,9.7c0,6.8-5.5,10.6-13.9,10.8l-0.9,0h-18.6v-39.3H160.4z     M197.5,271.6c4.5,0,8.2,1.1,10.4,3.4c1.9,1.9,2.6,4.1,2.6,6.7c0,4.5-2.2,7.1-5.2,8.6c4.5,1.9,7.4,4.5,7.4,9.7    c0,6.8-5.5,10.6-13.9,10.8l-0.9,0h-18.6v-39.3H197.5z M234.7,271.6c4.5,0,8.2,1.1,10.4,3.4c1.9,1.9,2.6,4.1,2.6,6.7    c0,4.5-2.2,7.1-5.2,8.6c4.5,1.9,7.4,4.5,7.4,9.7c0,6.8-5.5,10.6-13.9,10.8l-0.9,0h-18.6v-39.3H234.7z M253.4,306.8    c0.4,0,0.7,0,0.9,0.1c0.3,0.1,0.5,0.4,0.5,0.8c0,0.3-0.1,0.5-0.3,0.7c-0.1,0.1-0.3,0.1-0.5,0.2l0,0c0.3,0,0.4,0.2,0.6,0.3    c0.1,0.2,0.2,0.3,0.2,0.5v0.2c0,0.1,0,0.2,0,0.2c0,0.1,0,0.1,0,0.2l0,0h-0.5l0,0c0,0,0,0,0,0l0-0.1v-0.3c0-0.4-0.1-0.6-0.3-0.8    c-0.1-0.1-0.3-0.1-0.7-0.1h-0.5v1.3h-0.6v-3.3H253.4z M160.8,294.8h-10.4v8.6h10.4c3.7,0,6.3-1.5,6.3-4.1    C167.1,296.7,165.2,294.8,160.8,294.8z M197.9,294.8h-10.4v8.6h10.4c3.7,0,6.3-1.5,6.3-4.1C204.2,296.7,202.4,294.8,197.9,294.8z     M234.7,294.8h-10v8.6H235c3.7,0,5.9-1.5,5.9-4.1C241,296.7,239.1,294.8,234.7,294.8z M159.3,279.5h-8.9v8.2h8.2    c3.7,0,6.3-1.1,6.3-4.1C164.9,281,163,279.5,159.3,279.5z M196.4,279.5h-8.9v8.2h8.2c3.7,0,6.3-1.1,6.3-4.1    C202,281,200.1,279.5,196.4,279.5z M233.5,279.5l-8.5,0v8.2h7.8c3.7,0,6.3-1.1,6.3-4.1C239.1,281,237.2,279.5,233.5,279.5z     M229.1,245.8l2.5,7.9h-17.7l-3.3,11.2h-29.3l-3.3-11.2h-17.7l2.5-7.9H229.1z M181.8,188.5l2.3,1.9c0,0-2.3,3.2,0.8,6.2l0.5,0.4    l0,0l15,10.9c2.9,2.3,4.9,5.4,5.9,8.8c0.3,1,1.3,5.9-0.5,10.6c-0.3,0.7-0.7,1.4-1,2.1l-0.6,1l-8.5,11.6l-2.4-2    c0.1-0.1,0.2-0.2,0.2-0.3c0.1-0.2,0.2-0.3,0.3-0.5c0.5-0.9,0.5-1.8,0.3-2.4c0-0.2-0.1-0.3-0.1-0.5l0-0.1l0,0    c0-0.1-0.1-0.2-0.2-0.3l-0.1-0.2l0,0l-0.1-0.2l-0.2-0.3c-0.3-0.3-0.6-0.6-0.9-0.9l-0.2-0.2L176.8,223c-3.3-2.6-5.6-6.4-6.3-10.5    c-0.1-0.8-0.1-1.7-0.1-2.5c0-3.3,0.7-6.3,2.4-9l0.6-0.9l6.1-8.2L181.8,188.5z M195.7,135.9l1.9,1.5c-1.1,1.5-1.5,3.4-1.1,5.2    c0.3,1.6,1.2,3,2.4,4l0.5,0.4l24.1,17.6c5.2,3.7,8.2,9,9.3,15c1,5.6-0.2,11.5-3.4,16.3l-0.7,0.9l-16,22.1l-2.2-1.6    c0,0,1.1-1.5,1.7-3.6l0.2-0.6l0.2-0.8c0.2-1,0.2-2,0.2-3l-0.1-0.7v-0.2c-0.1-0.8-0.3-1.5-0.6-2.3c0-0.1,0-0.1-0.1-0.2l0,0    c-0.7-1.8-2-3.5-3.5-4.8l-0.7-0.5l-20-14.6c-5.2-3.7-8.2-9-9.3-15c-0.4-1.1-0.4-2.6-0.4-3.7c0-4.5,1.2-8.6,3.7-12.4l0.7-1    L195.7,135.9z"></path>
		</g>
	</g>
</svg>